<svg width="303" height="863" viewBox="0 0 303 863" fill="none" xmlns="http://www.w3.org/2000/svg">
<g filter="url(#filter0_d_10_7)">
<mask id="path-1-outside-1_10_7" maskUnits="userSpaceOnUse" x="0.72171" y="0.399963" width="297" height="858" fill="black">
<rect fill="white" x="0.72171" y="0.399963" width="297" height="858"/>
<path d="M232.962 15.8V1.39996H270.642C278.482 1.39996 284.722 3.47997 289.362 7.63997C294.002 11.8 296.322 18.04 296.322 26.36V67.16C296.322 70.52 295.242 73.28 293.082 75.44C291.002 77.6 288.282 78.68 284.922 78.68H270.162C267.122 78.68 264.882 78.04 263.442 76.76C262.082 75.4 261.282 73.8 261.042 71.96H258.882C258.162 73.8 256.842 75.4 254.922 76.76C253.082 78.04 250.402 78.68 246.882 78.68C244.082 78.68 241.482 78.12 239.082 77C236.762 75.96 234.722 74.36 232.962 72.2C231.282 69.96 229.922 67.16 228.882 63.8C227.922 60.44 227.442 56.48 227.442 51.92V51.2C227.442 46.64 227.962 42.68 229.002 39.32C230.122 35.96 231.562 33.2 233.322 31.04C235.162 28.8 237.282 27.16 239.682 26.12C242.162 25 244.802 24.44 247.602 24.44C250.642 24.44 252.962 25.04 254.562 26.24C256.242 27.36 257.442 28.76 258.162 30.44H260.322V26.12H274.722V61.64C274.722 63.88 275.802 65 277.962 65H278.682C280.842 65 281.922 63.88 281.922 61.64V30.2C281.922 20.6 277.122 15.8 267.522 15.8H232.962ZM251.202 65C254.482 65 256.802 63.8 258.162 61.4C259.602 58.92 260.322 55.76 260.322 51.92V51.2C260.322 47.36 259.602 44.24 258.162 41.84C256.802 39.36 254.482 38.12 251.202 38.12C248.162 38.12 245.842 39.36 244.242 41.84C242.642 44.24 241.842 47.36 241.842 51.2V51.92C241.842 55.76 242.642 58.92 244.242 61.4C245.842 63.8 248.162 65 251.202 65Z"/>
<path d="M279.522 192.08L270.762 183.32L266.802 174.44L264.882 175.28L268.242 184.04V196.76H256.722V184.04L260.082 175.28L258.162 174.44L254.202 183.32L245.442 192.08L237.402 184.04L246.162 175.28L255.042 171.32L254.202 169.4L245.442 172.76H232.722V161.24H245.442L254.202 164.6L255.042 162.68L246.162 158.72L237.402 149.96L245.442 141.92L254.202 150.68L258.162 159.56L260.082 158.72L256.722 149.96V137.24H268.242V149.96L264.882 158.72L266.802 159.56L270.762 150.68L279.522 141.92L287.562 149.96L278.802 158.72L269.922 162.68L270.762 164.6L279.522 161.24H292.242V172.76H279.522L270.762 169.4L269.922 171.32L278.802 175.28L287.562 184.04L279.522 192.08Z"/>
<path d="M267.042 330.2V316.52H257.922V330.2H244.962V316.52H232.722V303.56H244.962V294.44H232.722V281.48H244.962V267.8H257.922V281.48H267.042V267.8H280.002V281.48H292.242V294.44H280.002V303.56H292.242V316.52H280.002V330.2H267.042ZM267.042 294.44H257.922V303.56H267.042V294.44Z"/>
<path d="M279.522 456.08L270.762 447.32L266.802 438.44L264.882 439.28L268.242 448.04V460.76H256.722V448.04L260.082 439.28L258.162 438.44L254.202 447.32L245.442 456.08L237.402 448.04L246.162 439.28L255.042 435.32L254.202 433.4L245.442 436.76H232.722V425.24H245.442L254.202 428.6L255.042 426.68L246.162 422.72L237.402 413.96L245.442 405.92L254.202 414.68L258.162 423.56L260.082 422.72L256.722 413.96V401.24H268.242V413.96L264.882 422.72L266.802 423.56L270.762 414.68L279.522 405.92L287.562 413.96L278.802 422.72L269.922 426.68L270.762 428.6L279.522 425.24H292.242V436.76H279.522L270.762 433.4L269.922 435.32L278.802 439.28L287.562 448.04L279.522 456.08Z"/>
<path d="M268.242 532.28C273.682 533.4 277.882 535.64 280.842 539C283.802 542.36 285.282 546.36 285.282 551V552.68H271.602V551C271.602 550.04 271.322 549.12 270.762 548.24C270.282 547.28 269.442 546.48 268.242 545.84V556.64C280.562 558.32 286.722 564.2 286.722 574.28V575C286.722 580.36 285.082 584.72 281.802 588.08C278.602 591.44 274.082 593.48 268.242 594.2V601.64H256.722V593.84C253.442 593.28 250.642 592.36 248.322 591.08C246.002 589.72 244.082 588.12 242.562 586.28C241.122 584.44 240.042 582.4 239.322 580.16C238.602 577.84 238.242 575.48 238.242 573.08V570.68H251.922V572.36C251.922 574.2 252.282 575.8 253.002 577.16C253.722 578.52 254.962 579.6 256.722 580.4V567.44C251.202 566.48 246.842 564.68 243.642 562.04C240.522 559.4 238.962 555.56 238.962 550.52V549.8C238.962 547.08 239.442 544.72 240.402 542.72C241.362 540.64 242.642 538.88 244.242 537.44C245.842 535.92 247.722 534.72 249.882 533.84C252.042 532.96 254.322 532.32 256.722 531.92V524.36H268.242V532.28ZM273.042 575.24C273.042 574.04 272.762 572.96 272.202 572C271.642 570.96 270.322 570.12 268.242 569.48V580.88C270.082 580.32 271.322 579.52 271.962 578.48C272.682 577.44 273.042 576.36 273.042 575.24ZM252.642 549.8C252.642 550.92 252.882 551.88 253.362 552.68C253.842 553.4 254.962 554.08 256.722 554.72V545.24C255.282 545.72 254.242 546.4 253.602 547.28C252.962 548.08 252.642 548.92 252.642 549.8Z"/>
<path d="M270.522 701.72H257.202C253.842 701.72 251.122 702.56 249.042 704.24C246.962 705.92 245.922 708.44 245.922 711.8V712.52C245.922 715.88 246.962 718.4 249.042 720.08C251.122 721.76 253.842 722.6 257.202 722.6H270.522V701.72ZM285.642 677.48V687.32H296.682V702.44H285.642V737H255.642C251.642 737 248.082 736.44 244.962 735.32C241.842 734.2 239.242 732.68 237.162 730.76C235.082 728.76 233.482 726.44 232.362 723.8C231.322 721.08 230.802 718.16 230.802 715.04V713.6C230.802 708.8 232.122 704.96 234.762 702.08C237.482 699.12 240.882 697.08 244.962 695.96V693.8C240.882 692.68 237.482 690.68 234.762 687.8C232.122 684.92 230.802 681.08 230.802 676.28V674.84C230.802 671.72 231.322 668.84 232.362 666.2C233.482 663.48 235.082 661.16 237.162 659.24C239.242 657.32 241.842 655.8 244.962 654.68C248.082 653.56 251.642 653 255.642 653H268.722V667.4H257.202C253.842 667.4 251.122 668.2 249.042 669.8C246.962 671.32 245.922 673.72 245.922 677V677.72C245.922 681.08 246.962 683.52 249.042 685.04C251.122 686.56 253.842 687.32 257.202 687.32H270.522V677.48H285.642Z"/>
<path d="M279.522 852.08L270.762 843.32L266.802 834.44L264.882 835.28L268.242 844.04V856.76H256.722V844.04L260.082 835.28L258.162 834.44L254.202 843.32L245.442 852.08L237.402 844.04L246.162 835.28L255.042 831.32L254.202 829.4L245.442 832.76H232.722V821.24H245.442L254.202 824.6L255.042 822.68L246.162 818.72L237.402 809.96L245.442 801.92L254.202 810.68L258.162 819.56L260.082 818.72L256.722 809.96V797.24H268.242V809.96L264.882 818.72L266.802 819.56L270.762 810.68L279.522 801.92L287.562 809.96L278.802 818.72L269.922 822.68L270.762 824.6L279.522 821.24H292.242V832.76H279.522L270.762 829.4L269.922 831.32L278.802 835.28L287.562 844.04L279.522 852.08Z"/>
<path d="M122.962 15.8V1.39996H160.642C168.482 1.39996 174.722 3.47997 179.362 7.63997C184.002 11.8 186.322 18.04 186.322 26.36V67.16C186.322 70.52 185.242 73.28 183.082 75.44C181.002 77.6 178.282 78.68 174.922 78.68H160.162C157.122 78.68 154.882 78.04 153.442 76.76C152.082 75.4 151.282 73.8 151.042 71.96H148.882C148.162 73.8 146.842 75.4 144.922 76.76C143.082 78.04 140.402 78.68 136.882 78.68C134.082 78.68 131.482 78.12 129.082 77C126.762 75.96 124.722 74.36 122.962 72.2C121.282 69.96 119.922 67.16 118.882 63.8C117.922 60.44 117.442 56.48 117.442 51.92V51.2C117.442 46.64 117.962 42.68 119.002 39.32C120.122 35.96 121.562 33.2 123.322 31.04C125.162 28.8 127.282 27.16 129.682 26.12C132.162 25 134.802 24.44 137.602 24.44C140.642 24.44 142.962 25.04 144.562 26.24C146.242 27.36 147.442 28.76 148.162 30.44H150.322V26.12H164.722V61.64C164.722 63.88 165.802 65 167.962 65H168.682C170.842 65 171.922 63.88 171.922 61.64V30.2C171.922 20.6 167.122 15.8 157.522 15.8H122.962ZM141.202 65C144.482 65 146.802 63.8 148.162 61.4C149.602 58.92 150.322 55.76 150.322 51.92V51.2C150.322 47.36 149.602 44.24 148.162 41.84C146.802 39.36 144.482 38.12 141.202 38.12C138.162 38.12 135.842 39.36 134.242 41.84C132.642 44.24 131.842 47.36 131.842 51.2V51.92C131.842 55.76 132.642 58.92 134.242 61.4C135.842 63.8 138.162 65 141.202 65Z"/>
<path d="M169.522 192.08L160.762 183.32L156.802 174.44L154.882 175.28L158.242 184.04V196.76H146.722V184.04L150.082 175.28L148.162 174.44L144.202 183.32L135.442 192.08L127.402 184.04L136.162 175.28L145.042 171.32L144.202 169.4L135.442 172.76H122.722V161.24H135.442L144.202 164.6L145.042 162.68L136.162 158.72L127.402 149.96L135.442 141.92L144.202 150.68L148.162 159.56L150.082 158.72L146.722 149.96V137.24H158.242V149.96L154.882 158.72L156.802 159.56L160.762 150.68L169.522 141.92L177.562 149.96L168.802 158.72L159.922 162.68L160.762 164.6L169.522 161.24H182.242V172.76H169.522L160.762 169.4L159.922 171.32L168.802 175.28L177.562 184.04L169.522 192.08Z"/>
<path d="M157.042 330.2V316.52H147.922V330.2H134.962V316.52H122.722V303.56H134.962V294.44H122.722V281.48H134.962V267.8H147.922V281.48H157.042V267.8H170.002V281.48H182.242V294.44H170.002V303.56H182.242V316.52H170.002V330.2H157.042ZM157.042 294.44H147.922V303.56H157.042V294.44Z"/>
<path d="M169.522 456.08L160.762 447.32L156.802 438.44L154.882 439.28L158.242 448.04V460.76H146.722V448.04L150.082 439.28L148.162 438.44L144.202 447.32L135.442 456.08L127.402 448.04L136.162 439.28L145.042 435.32L144.202 433.4L135.442 436.76H122.722V425.24H135.442L144.202 428.6L145.042 426.68L136.162 422.72L127.402 413.96L135.442 405.92L144.202 414.68L148.162 423.56L150.082 422.72L146.722 413.96V401.24H158.242V413.96L154.882 422.72L156.802 423.56L160.762 414.68L169.522 405.92L177.562 413.96L168.802 422.72L159.922 426.68L160.762 428.6L169.522 425.24H182.242V436.76H169.522L160.762 433.4L159.922 435.32L168.802 439.28L177.562 448.04L169.522 456.08Z"/>
<path d="M158.242 532.28C163.682 533.4 167.882 535.64 170.842 539C173.802 542.36 175.282 546.36 175.282 551V552.68H161.602V551C161.602 550.04 161.322 549.12 160.762 548.24C160.282 547.28 159.442 546.48 158.242 545.84V556.64C170.562 558.32 176.722 564.2 176.722 574.28V575C176.722 580.36 175.082 584.72 171.802 588.08C168.602 591.44 164.082 593.48 158.242 594.2V601.64H146.722V593.84C143.442 593.28 140.642 592.36 138.322 591.08C136.002 589.72 134.082 588.12 132.562 586.28C131.122 584.44 130.042 582.4 129.322 580.16C128.602 577.84 128.242 575.48 128.242 573.08V570.68H141.922V572.36C141.922 574.2 142.282 575.8 143.002 577.16C143.722 578.52 144.962 579.6 146.722 580.4V567.44C141.202 566.48 136.842 564.68 133.642 562.04C130.522 559.4 128.962 555.56 128.962 550.52V549.8C128.962 547.08 129.442 544.72 130.402 542.72C131.362 540.64 132.642 538.88 134.242 537.44C135.842 535.92 137.722 534.72 139.882 533.84C142.042 532.96 144.322 532.32 146.722 531.92V524.36H158.242V532.28ZM163.042 575.24C163.042 574.04 162.762 572.96 162.202 572C161.642 570.96 160.322 570.12 158.242 569.48V580.88C160.082 580.32 161.322 579.52 161.962 578.48C162.682 577.44 163.042 576.36 163.042 575.24ZM142.642 549.8C142.642 550.92 142.882 551.88 143.362 552.68C143.842 553.4 144.962 554.08 146.722 554.72V545.24C145.282 545.72 144.242 546.4 143.602 547.28C142.962 548.08 142.642 548.92 142.642 549.8Z"/>
<path d="M160.522 701.72H147.202C143.842 701.72 141.122 702.56 139.042 704.24C136.962 705.92 135.922 708.44 135.922 711.8V712.52C135.922 715.88 136.962 718.4 139.042 720.08C141.122 721.76 143.842 722.6 147.202 722.6H160.522V701.72ZM175.642 677.48V687.32H186.682V702.44H175.642V737H145.642C141.642 737 138.082 736.44 134.962 735.32C131.842 734.2 129.242 732.68 127.162 730.76C125.082 728.76 123.482 726.44 122.362 723.8C121.322 721.08 120.802 718.16 120.802 715.04V713.6C120.802 708.8 122.122 704.96 124.762 702.08C127.482 699.12 130.882 697.08 134.962 695.96V693.8C130.882 692.68 127.482 690.68 124.762 687.8C122.122 684.92 120.802 681.08 120.802 676.28V674.84C120.802 671.72 121.322 668.84 122.362 666.2C123.482 663.48 125.082 661.16 127.162 659.24C129.242 657.32 131.842 655.8 134.962 654.68C138.082 653.56 141.642 653 145.642 653H158.722V667.4H147.202C143.842 667.4 141.122 668.2 139.042 669.8C136.962 671.32 135.922 673.72 135.922 677V677.72C135.922 681.08 136.962 683.52 139.042 685.04C141.122 686.56 143.842 687.32 147.202 687.32H160.522V677.48H175.642Z"/>
<path d="M169.522 852.08L160.762 843.32L156.802 834.44L154.882 835.28L158.242 844.04V856.76H146.722V844.04L150.082 835.28L148.162 834.44L144.202 843.32L135.442 852.08L127.402 844.04L136.162 835.28L145.042 831.32L144.202 829.4L135.442 832.76H122.722V821.24H135.442L144.202 824.6L145.042 822.68L136.162 818.72L127.402 809.96L135.442 801.92L144.202 810.68L148.162 819.56L150.082 818.72L146.722 809.96V797.24H158.242V809.96L154.882 818.72L156.802 819.56L160.762 810.68L169.522 801.92L177.562 809.96L168.802 818.72L159.922 822.68L160.762 824.6L169.522 821.24H182.242V832.76H169.522L160.762 829.4L159.922 831.32L168.802 835.28L177.562 844.04L169.522 852.08Z"/>
<path d="M36.0417 330.2V316.52H26.9217V330.2H13.9617V316.52H1.72171V303.56H13.9617V294.44H1.72171V281.48H13.9617V267.8H26.9217V281.48H36.0417V267.8H49.0017V281.48H61.2417V294.44H49.0017V303.56H61.2417V316.52H49.0017V330.2H36.0417ZM36.0417 294.44H26.9217V303.56H36.0417V294.44Z"/>
<path d="M48.5217 456.08L39.7617 447.32L35.8017 438.44L33.8817 439.28L37.2417 448.04V460.76H25.7217V448.04L29.0817 439.28L27.1617 438.44L23.2017 447.32L14.4417 456.08L6.40171 448.04L15.1617 439.28L24.0417 435.32L23.2017 433.4L14.4417 436.76H1.72171V425.24H14.4417L23.2017 428.6L24.0417 426.68L15.1617 422.72L6.40171 413.96L14.4417 405.92L23.2017 414.68L27.1617 423.56L29.0817 422.72L25.7217 413.96V401.24H37.2417V413.96L33.8817 422.72L35.8017 423.56L39.7617 414.68L48.5217 405.92L56.5617 413.96L47.8017 422.72L38.9217 426.68L39.7617 428.6L48.5217 425.24H61.2417V436.76H48.5217L39.7617 433.4L38.9217 435.32L47.8017 439.28L56.5617 448.04L48.5217 456.08Z"/>
<path d="M37.2417 532.28C42.6817 533.4 46.8817 535.64 49.8417 539C52.8017 542.36 54.2817 546.36 54.2817 551V552.68H40.6017V551C40.6017 550.04 40.3217 549.12 39.7617 548.24C39.2817 547.28 38.4417 546.48 37.2417 545.84V556.64C49.5617 558.32 55.7217 564.2 55.7217 574.28V575C55.7217 580.36 54.0817 584.72 50.8017 588.08C47.6017 591.44 43.0817 593.48 37.2417 594.2V601.64H25.7217V593.84C22.4417 593.28 19.6417 592.36 17.3217 591.08C15.0017 589.72 13.0817 588.12 11.5617 586.28C10.1217 584.44 9.04171 582.4 8.32171 580.16C7.60171 577.84 7.24171 575.48 7.24171 573.08V570.68H20.9217V572.36C20.9217 574.2 21.2817 575.8 22.0017 577.16C22.7217 578.52 23.9617 579.6 25.7217 580.4V567.44C20.2017 566.48 15.8417 564.68 12.6417 562.04C9.52171 559.4 7.96171 555.56 7.96171 550.52V549.8C7.96171 547.08 8.44171 544.72 9.40171 542.72C10.3617 540.64 11.6417 538.88 13.2417 537.44C14.8417 535.92 16.7217 534.72 18.8817 533.84C21.0417 532.96 23.3217 532.32 25.7217 531.92V524.36H37.2417V532.28ZM42.0417 575.24C42.0417 574.04 41.7617 572.96 41.2017 572C40.6417 570.96 39.3217 570.12 37.2417 569.48V580.88C39.0817 580.32 40.3217 579.52 40.9617 578.48C41.6817 577.44 42.0417 576.36 42.0417 575.24ZM21.6417 549.8C21.6417 550.92 21.8817 551.88 22.3617 552.68C22.8417 553.4 23.9617 554.08 25.7217 554.72V545.24C24.2817 545.72 23.2417 546.4 22.6017 547.28C21.9617 548.08 21.6417 548.92 21.6417 549.8Z"/>
</mask>
<path d="M232.962 15.8V1.39996H270.642C278.482 1.39996 284.722 3.47997 289.362 7.63997C294.002 11.8 296.322 18.04 296.322 26.36V67.16C296.322 70.52 295.242 73.28 293.082 75.44C291.002 77.6 288.282 78.68 284.922 78.68H270.162C267.122 78.68 264.882 78.04 263.442 76.76C262.082 75.4 261.282 73.8 261.042 71.96H258.882C258.162 73.8 256.842 75.4 254.922 76.76C253.082 78.04 250.402 78.68 246.882 78.68C244.082 78.68 241.482 78.12 239.082 77C236.762 75.96 234.722 74.36 232.962 72.2C231.282 69.96 229.922 67.16 228.882 63.8C227.922 60.44 227.442 56.48 227.442 51.92V51.2C227.442 46.64 227.962 42.68 229.002 39.32C230.122 35.96 231.562 33.2 233.322 31.04C235.162 28.8 237.282 27.16 239.682 26.12C242.162 25 244.802 24.44 247.602 24.44C250.642 24.44 252.962 25.04 254.562 26.24C256.242 27.36 257.442 28.76 258.162 30.44H260.322V26.12H274.722V61.64C274.722 63.88 275.802 65 277.962 65H278.682C280.842 65 281.922 63.88 281.922 61.64V30.2C281.922 20.6 277.122 15.8 267.522 15.8H232.962ZM251.202 65C254.482 65 256.802 63.8 258.162 61.4C259.602 58.92 260.322 55.76 260.322 51.92V51.2C260.322 47.36 259.602 44.24 258.162 41.84C256.802 39.36 254.482 38.12 251.202 38.12C248.162 38.12 245.842 39.36 244.242 41.84C242.642 44.24 241.842 47.36 241.842 51.2V51.92C241.842 55.76 242.642 58.92 244.242 61.4C245.842 63.8 248.162 65 251.202 65Z" fill="#F5F5F5"/>
<path d="M279.522 192.08L270.762 183.32L266.802 174.44L264.882 175.28L268.242 184.04V196.76H256.722V184.04L260.082 175.28L258.162 174.44L254.202 183.32L245.442 192.08L237.402 184.04L246.162 175.28L255.042 171.32L254.202 169.4L245.442 172.76H232.722V161.24H245.442L254.202 164.6L255.042 162.68L246.162 158.72L237.402 149.96L245.442 141.92L254.202 150.68L258.162 159.56L260.082 158.72L256.722 149.96V137.24H268.242V149.96L264.882 158.72L266.802 159.56L270.762 150.68L279.522 141.92L287.562 149.96L278.802 158.72L269.922 162.68L270.762 164.6L279.522 161.24H292.242V172.76H279.522L270.762 169.4L269.922 171.32L278.802 175.28L287.562 184.04L279.522 192.08Z" fill="#F5F5F5"/>
<path d="M267.042 330.2V316.52H257.922V330.2H244.962V316.52H232.722V303.56H244.962V294.44H232.722V281.48H244.962V267.8H257.922V281.48H267.042V267.8H280.002V281.48H292.242V294.44H280.002V303.56H292.242V316.52H280.002V330.2H267.042ZM267.042 294.44H257.922V303.56H267.042V294.44Z" fill="#F5F5F5"/>
<path d="M279.522 456.08L270.762 447.32L266.802 438.44L264.882 439.28L268.242 448.04V460.76H256.722V448.04L260.082 439.28L258.162 438.44L254.202 447.32L245.442 456.08L237.402 448.04L246.162 439.28L255.042 435.32L254.202 433.4L245.442 436.76H232.722V425.24H245.442L254.202 428.6L255.042 426.68L246.162 422.72L237.402 413.96L245.442 405.92L254.202 414.68L258.162 423.56L260.082 422.72L256.722 413.96V401.24H268.242V413.96L264.882 422.72L266.802 423.56L270.762 414.68L279.522 405.92L287.562 413.96L278.802 422.72L269.922 426.68L270.762 428.6L279.522 425.24H292.242V436.76H279.522L270.762 433.4L269.922 435.32L278.802 439.28L287.562 448.04L279.522 456.08Z" fill="#F5F5F5"/>
<path d="M268.242 532.28C273.682 533.4 277.882 535.64 280.842 539C283.802 542.36 285.282 546.36 285.282 551V552.68H271.602V551C271.602 550.04 271.322 549.12 270.762 548.24C270.282 547.28 269.442 546.48 268.242 545.84V556.64C280.562 558.32 286.722 564.2 286.722 574.28V575C286.722 580.36 285.082 584.72 281.802 588.08C278.602 591.44 274.082 593.48 268.242 594.2V601.64H256.722V593.84C253.442 593.28 250.642 592.36 248.322 591.08C246.002 589.72 244.082 588.12 242.562 586.28C241.122 584.44 240.042 582.4 239.322 580.16C238.602 577.84 238.242 575.48 238.242 573.08V570.68H251.922V572.36C251.922 574.2 252.282 575.8 253.002 577.16C253.722 578.52 254.962 579.6 256.722 580.4V567.44C251.202 566.48 246.842 564.68 243.642 562.04C240.522 559.4 238.962 555.56 238.962 550.52V549.8C238.962 547.08 239.442 544.72 240.402 542.72C241.362 540.64 242.642 538.88 244.242 537.44C245.842 535.92 247.722 534.72 249.882 533.84C252.042 532.96 254.322 532.32 256.722 531.92V524.36H268.242V532.28ZM273.042 575.24C273.042 574.04 272.762 572.96 272.202 572C271.642 570.96 270.322 570.12 268.242 569.48V580.88C270.082 580.32 271.322 579.52 271.962 578.48C272.682 577.44 273.042 576.36 273.042 575.24ZM252.642 549.8C252.642 550.92 252.882 551.88 253.362 552.68C253.842 553.4 254.962 554.08 256.722 554.72V545.24C255.282 545.72 254.242 546.4 253.602 547.28C252.962 548.08 252.642 548.92 252.642 549.8Z" fill="#F5F5F5"/>
<path d="M270.522 701.72H257.202C253.842 701.72 251.122 702.56 249.042 704.24C246.962 705.92 245.922 708.44 245.922 711.8V712.52C245.922 715.88 246.962 718.4 249.042 720.08C251.122 721.76 253.842 722.6 257.202 722.6H270.522V701.72ZM285.642 677.48V687.32H296.682V702.44H285.642V737H255.642C251.642 737 248.082 736.44 244.962 735.32C241.842 734.2 239.242 732.68 237.162 730.76C235.082 728.76 233.482 726.44 232.362 723.8C231.322 721.08 230.802 718.16 230.802 715.04V713.6C230.802 708.8 232.122 704.96 234.762 702.08C237.482 699.12 240.882 697.08 244.962 695.96V693.8C240.882 692.68 237.482 690.68 234.762 687.8C232.122 684.92 230.802 681.08 230.802 676.28V674.84C230.802 671.72 231.322 668.84 232.362 666.2C233.482 663.48 235.082 661.16 237.162 659.24C239.242 657.32 241.842 655.8 244.962 654.68C248.082 653.56 251.642 653 255.642 653H268.722V667.4H257.202C253.842 667.4 251.122 668.2 249.042 669.8C246.962 671.32 245.922 673.72 245.922 677V677.72C245.922 681.08 246.962 683.52 249.042 685.04C251.122 686.56 253.842 687.32 257.202 687.32H270.522V677.48H285.642Z" fill="#F5F5F5"/>
<path d="M279.522 852.08L270.762 843.32L266.802 834.44L264.882 835.28L268.242 844.04V856.76H256.722V844.04L260.082 835.28L258.162 834.44L254.202 843.32L245.442 852.08L237.402 844.04L246.162 835.28L255.042 831.32L254.202 829.4L245.442 832.76H232.722V821.24H245.442L254.202 824.6L255.042 822.68L246.162 818.72L237.402 809.96L245.442 801.92L254.202 810.68L258.162 819.56L260.082 818.72L256.722 809.96V797.24H268.242V809.96L264.882 818.72L266.802 819.56L270.762 810.68L279.522 801.92L287.562 809.96L278.802 818.72L269.922 822.68L270.762 824.6L279.522 821.24H292.242V832.76H279.522L270.762 829.4L269.922 831.32L278.802 835.28L287.562 844.04L279.522 852.08Z" fill="#F5F5F5"/>
<path d="M122.962 15.8V1.39996H160.642C168.482 1.39996 174.722 3.47997 179.362 7.63997C184.002 11.8 186.322 18.04 186.322 26.36V67.16C186.322 70.52 185.242 73.28 183.082 75.44C181.002 77.6 178.282 78.68 174.922 78.68H160.162C157.122 78.68 154.882 78.04 153.442 76.76C152.082 75.4 151.282 73.8 151.042 71.96H148.882C148.162 73.8 146.842 75.4 144.922 76.76C143.082 78.04 140.402 78.68 136.882 78.68C134.082 78.68 131.482 78.12 129.082 77C126.762 75.96 124.722 74.36 122.962 72.2C121.282 69.96 119.922 67.16 118.882 63.8C117.922 60.44 117.442 56.48 117.442 51.92V51.2C117.442 46.64 117.962 42.68 119.002 39.32C120.122 35.96 121.562 33.2 123.322 31.04C125.162 28.8 127.282 27.16 129.682 26.12C132.162 25 134.802 24.44 137.602 24.44C140.642 24.44 142.962 25.04 144.562 26.24C146.242 27.36 147.442 28.76 148.162 30.44H150.322V26.12H164.722V61.64C164.722 63.88 165.802 65 167.962 65H168.682C170.842 65 171.922 63.88 171.922 61.64V30.2C171.922 20.6 167.122 15.8 157.522 15.8H122.962ZM141.202 65C144.482 65 146.802 63.8 148.162 61.4C149.602 58.92 150.322 55.76 150.322 51.92V51.2C150.322 47.36 149.602 44.24 148.162 41.84C146.802 39.36 144.482 38.12 141.202 38.12C138.162 38.12 135.842 39.36 134.242 41.84C132.642 44.24 131.842 47.36 131.842 51.2V51.92C131.842 55.76 132.642 58.92 134.242 61.4C135.842 63.8 138.162 65 141.202 65Z" fill="#F5F5F5"/>
<path d="M169.522 192.08L160.762 183.32L156.802 174.44L154.882 175.28L158.242 184.04V196.76H146.722V184.04L150.082 175.28L148.162 174.44L144.202 183.32L135.442 192.08L127.402 184.04L136.162 175.28L145.042 171.32L144.202 169.4L135.442 172.76H122.722V161.24H135.442L144.202 164.6L145.042 162.68L136.162 158.72L127.402 149.96L135.442 141.92L144.202 150.68L148.162 159.56L150.082 158.72L146.722 149.96V137.24H158.242V149.96L154.882 158.72L156.802 159.56L160.762 150.68L169.522 141.92L177.562 149.96L168.802 158.72L159.922 162.68L160.762 164.6L169.522 161.24H182.242V172.76H169.522L160.762 169.4L159.922 171.32L168.802 175.28L177.562 184.04L169.522 192.08Z" fill="#F5F5F5"/>
<path d="M157.042 330.2V316.52H147.922V330.2H134.962V316.52H122.722V303.56H134.962V294.44H122.722V281.48H134.962V267.8H147.922V281.48H157.042V267.8H170.002V281.48H182.242V294.44H170.002V303.56H182.242V316.52H170.002V330.2H157.042ZM157.042 294.44H147.922V303.56H157.042V294.44Z" fill="#F5F5F5"/>
<path d="M169.522 456.08L160.762 447.32L156.802 438.44L154.882 439.28L158.242 448.04V460.76H146.722V448.04L150.082 439.28L148.162 438.44L144.202 447.32L135.442 456.08L127.402 448.04L136.162 439.28L145.042 435.32L144.202 433.4L135.442 436.76H122.722V425.24H135.442L144.202 428.6L145.042 426.68L136.162 422.72L127.402 413.96L135.442 405.92L144.202 414.68L148.162 423.56L150.082 422.72L146.722 413.96V401.24H158.242V413.96L154.882 422.72L156.802 423.56L160.762 414.68L169.522 405.92L177.562 413.96L168.802 422.72L159.922 426.68L160.762 428.6L169.522 425.24H182.242V436.76H169.522L160.762 433.4L159.922 435.32L168.802 439.28L177.562 448.04L169.522 456.08Z" fill="#F5F5F5"/>
<path d="M158.242 532.28C163.682 533.4 167.882 535.64 170.842 539C173.802 542.36 175.282 546.36 175.282 551V552.68H161.602V551C161.602 550.04 161.322 549.12 160.762 548.24C160.282 547.28 159.442 546.48 158.242 545.84V556.64C170.562 558.32 176.722 564.2 176.722 574.28V575C176.722 580.36 175.082 584.72 171.802 588.08C168.602 591.44 164.082 593.48 158.242 594.2V601.64H146.722V593.84C143.442 593.28 140.642 592.36 138.322 591.08C136.002 589.72 134.082 588.12 132.562 586.28C131.122 584.44 130.042 582.4 129.322 580.16C128.602 577.84 128.242 575.48 128.242 573.08V570.68H141.922V572.36C141.922 574.2 142.282 575.8 143.002 577.16C143.722 578.52 144.962 579.6 146.722 580.4V567.44C141.202 566.48 136.842 564.68 133.642 562.04C130.522 559.4 128.962 555.56 128.962 550.52V549.8C128.962 547.08 129.442 544.72 130.402 542.72C131.362 540.64 132.642 538.88 134.242 537.44C135.842 535.92 137.722 534.72 139.882 533.84C142.042 532.96 144.322 532.32 146.722 531.92V524.36H158.242V532.28ZM163.042 575.24C163.042 574.04 162.762 572.96 162.202 572C161.642 570.96 160.322 570.12 158.242 569.48V580.88C160.082 580.32 161.322 579.52 161.962 578.48C162.682 577.44 163.042 576.36 163.042 575.24ZM142.642 549.8C142.642 550.92 142.882 551.88 143.362 552.68C143.842 553.4 144.962 554.08 146.722 554.72V545.24C145.282 545.72 144.242 546.4 143.602 547.28C142.962 548.08 142.642 548.92 142.642 549.8Z" fill="#F5F5F5"/>
<path d="M160.522 701.72H147.202C143.842 701.72 141.122 702.56 139.042 704.24C136.962 705.92 135.922 708.44 135.922 711.8V712.52C135.922 715.88 136.962 718.4 139.042 720.08C141.122 721.76 143.842 722.6 147.202 722.6H160.522V701.72ZM175.642 677.48V687.32H186.682V702.44H175.642V737H145.642C141.642 737 138.082 736.44 134.962 735.32C131.842 734.2 129.242 732.68 127.162 730.76C125.082 728.76 123.482 726.44 122.362 723.8C121.322 721.08 120.802 718.16 120.802 715.04V713.6C120.802 708.8 122.122 704.96 124.762 702.08C127.482 699.12 130.882 697.08 134.962 695.96V693.8C130.882 692.68 127.482 690.68 124.762 687.8C122.122 684.92 120.802 681.08 120.802 676.28V674.84C120.802 671.72 121.322 668.84 122.362 666.2C123.482 663.48 125.082 661.16 127.162 659.24C129.242 657.32 131.842 655.8 134.962 654.68C138.082 653.56 141.642 653 145.642 653H158.722V667.4H147.202C143.842 667.4 141.122 668.2 139.042 669.8C136.962 671.32 135.922 673.72 135.922 677V677.72C135.922 681.08 136.962 683.52 139.042 685.04C141.122 686.56 143.842 687.32 147.202 687.32H160.522V677.48H175.642Z" fill="#F5F5F5"/>
<path d="M169.522 852.08L160.762 843.32L156.802 834.44L154.882 835.28L158.242 844.04V856.76H146.722V844.04L150.082 835.28L148.162 834.44L144.202 843.32L135.442 852.08L127.402 844.04L136.162 835.28L145.042 831.32L144.202 829.4L135.442 832.76H122.722V821.24H135.442L144.202 824.6L145.042 822.68L136.162 818.72L127.402 809.96L135.442 801.92L144.202 810.68L148.162 819.56L150.082 818.72L146.722 809.96V797.24H158.242V809.96L154.882 818.72L156.802 819.56L160.762 810.68L169.522 801.92L177.562 809.96L168.802 818.72L159.922 822.68L160.762 824.6L169.522 821.24H182.242V832.76H169.522L160.762 829.4L159.922 831.32L168.802 835.28L177.562 844.04L169.522 852.08Z" fill="#F5F5F5"/>
<path d="M36.0417 330.2V316.52H26.9217V330.2H13.9617V316.52H1.72171V303.56H13.9617V294.44H1.72171V281.48H13.9617V267.8H26.9217V281.48H36.0417V267.8H49.0017V281.48H61.2417V294.44H49.0017V303.56H61.2417V316.52H49.0017V330.2H36.0417ZM36.0417 294.44H26.9217V303.56H36.0417V294.44Z" fill="#F5F5F5"/>
<path d="M48.5217 456.08L39.7617 447.32L35.8017 438.44L33.8817 439.28L37.2417 448.04V460.76H25.7217V448.04L29.0817 439.28L27.1617 438.44L23.2017 447.32L14.4417 456.08L6.40171 448.04L15.1617 439.28L24.0417 435.32L23.2017 433.4L14.4417 436.76H1.72171V425.24H14.4417L23.2017 428.6L24.0417 426.68L15.1617 422.72L6.40171 413.96L14.4417 405.92L23.2017 414.68L27.1617 423.56L29.0817 422.72L25.7217 413.96V401.24H37.2417V413.96L33.8817 422.72L35.8017 423.56L39.7617 414.68L48.5217 405.92L56.5617 413.96L47.8017 422.72L38.9217 426.68L39.7617 428.6L48.5217 425.24H61.2417V436.76H48.5217L39.7617 433.4L38.9217 435.32L47.8017 439.28L56.5617 448.04L48.5217 456.08Z" fill="#F5F5F5"/>
<path d="M37.2417 532.28C42.6817 533.4 46.8817 535.64 49.8417 539C52.8017 542.36 54.2817 546.36 54.2817 551V552.68H40.6017V551C40.6017 550.04 40.3217 549.12 39.7617 548.24C39.2817 547.28 38.4417 546.48 37.2417 545.84V556.64C49.5617 558.32 55.7217 564.2 55.7217 574.28V575C55.7217 580.36 54.0817 584.72 50.8017 588.08C47.6017 591.44 43.0817 593.48 37.2417 594.2V601.64H25.7217V593.84C22.4417 593.28 19.6417 592.36 17.3217 591.08C15.0017 589.72 13.0817 588.12 11.5617 586.28C10.1217 584.44 9.04171 582.4 8.32171 580.16C7.60171 577.84 7.24171 575.48 7.24171 573.08V570.68H20.9217V572.36C20.9217 574.2 21.2817 575.8 22.0017 577.16C22.7217 578.52 23.9617 579.6 25.7217 580.4V567.44C20.2017 566.48 15.8417 564.68 12.6417 562.04C9.52171 559.4 7.96171 555.56 7.96171 550.52V549.8C7.96171 547.08 8.44171 544.72 9.40171 542.72C10.3617 540.64 11.6417 538.88 13.2417 537.44C14.8417 535.92 16.7217 534.72 18.8817 533.84C21.0417 532.96 23.3217 532.32 25.7217 531.92V524.36H37.2417V532.28ZM42.0417 575.24C42.0417 574.04 41.7617 572.96 41.2017 572C40.6417 570.96 39.3217 570.12 37.2417 569.48V580.88C39.0817 580.32 40.3217 579.52 40.9617 578.48C41.6817 577.44 42.0417 576.36 42.0417 575.24ZM21.6417 549.8C21.6417 550.92 21.8817 551.88 22.3617 552.68C22.8417 553.4 23.9617 554.08 25.7217 554.72V545.24C24.2817 545.72 23.2417 546.4 22.6017 547.28C21.9617 548.08 21.6417 548.92 21.6417 549.8Z" fill="#F5F5F5"/>
<path d="M232.962 15.8V1.39996H270.642C278.482 1.39996 284.722 3.47997 289.362 7.63997C294.002 11.8 296.322 18.04 296.322 26.36V67.16C296.322 70.52 295.242 73.28 293.082 75.44C291.002 77.6 288.282 78.68 284.922 78.68H270.162C267.122 78.68 264.882 78.04 263.442 76.76C262.082 75.4 261.282 73.8 261.042 71.96H258.882C258.162 73.8 256.842 75.4 254.922 76.76C253.082 78.04 250.402 78.68 246.882 78.68C244.082 78.68 241.482 78.12 239.082 77C236.762 75.96 234.722 74.36 232.962 72.2C231.282 69.96 229.922 67.16 228.882 63.8C227.922 60.44 227.442 56.48 227.442 51.92V51.2C227.442 46.64 227.962 42.68 229.002 39.32C230.122 35.96 231.562 33.2 233.322 31.04C235.162 28.8 237.282 27.16 239.682 26.12C242.162 25 244.802 24.44 247.602 24.44C250.642 24.44 252.962 25.04 254.562 26.24C256.242 27.36 257.442 28.76 258.162 30.44H260.322V26.12H274.722V61.64C274.722 63.88 275.802 65 277.962 65H278.682C280.842 65 281.922 63.88 281.922 61.64V30.2C281.922 20.6 277.122 15.8 267.522 15.8H232.962ZM251.202 65C254.482 65 256.802 63.8 258.162 61.4C259.602 58.92 260.322 55.76 260.322 51.92V51.2C260.322 47.36 259.602 44.24 258.162 41.84C256.802 39.36 254.482 38.12 251.202 38.12C248.162 38.12 245.842 39.36 244.242 41.84C242.642 44.24 241.842 47.36 241.842 51.2V51.92C241.842 55.76 242.642 58.92 244.242 61.4C245.842 63.8 248.162 65 251.202 65Z" stroke="#808080" stroke-width="2" mask="url(#path-1-outside-1_10_7)"/>
<path d="M279.522 192.08L270.762 183.32L266.802 174.44L264.882 175.28L268.242 184.04V196.76H256.722V184.04L260.082 175.28L258.162 174.44L254.202 183.32L245.442 192.08L237.402 184.04L246.162 175.28L255.042 171.32L254.202 169.4L245.442 172.76H232.722V161.24H245.442L254.202 164.6L255.042 162.68L246.162 158.72L237.402 149.96L245.442 141.92L254.202 150.68L258.162 159.56L260.082 158.72L256.722 149.96V137.24H268.242V149.96L264.882 158.72L266.802 159.56L270.762 150.68L279.522 141.92L287.562 149.96L278.802 158.72L269.922 162.68L270.762 164.6L279.522 161.24H292.242V172.76H279.522L270.762 169.4L269.922 171.32L278.802 175.28L287.562 184.04L279.522 192.08Z" stroke="#808080" stroke-width="2" mask="url(#path-1-outside-1_10_7)"/>
<path d="M267.042 330.2V316.52H257.922V330.2H244.962V316.52H232.722V303.56H244.962V294.44H232.722V281.48H244.962V267.8H257.922V281.48H267.042V267.8H280.002V281.48H292.242V294.44H280.002V303.56H292.242V316.52H280.002V330.2H267.042ZM267.042 294.44H257.922V303.56H267.042V294.44Z" stroke="#808080" stroke-width="2" mask="url(#path-1-outside-1_10_7)"/>
<path d="M279.522 456.08L270.762 447.32L266.802 438.44L264.882 439.28L268.242 448.04V460.76H256.722V448.04L260.082 439.28L258.162 438.44L254.202 447.32L245.442 456.08L237.402 448.04L246.162 439.28L255.042 435.32L254.202 433.4L245.442 436.76H232.722V425.24H245.442L254.202 428.6L255.042 426.68L246.162 422.72L237.402 413.96L245.442 405.92L254.202 414.68L258.162 423.56L260.082 422.72L256.722 413.96V401.24H268.242V413.96L264.882 422.72L266.802 423.56L270.762 414.68L279.522 405.92L287.562 413.96L278.802 422.72L269.922 426.68L270.762 428.6L279.522 425.24H292.242V436.76H279.522L270.762 433.4L269.922 435.32L278.802 439.28L287.562 448.04L279.522 456.08Z" stroke="#808080" stroke-width="2" mask="url(#path-1-outside-1_10_7)"/>
<path d="M268.242 532.28C273.682 533.4 277.882 535.64 280.842 539C283.802 542.36 285.282 546.36 285.282 551V552.68H271.602V551C271.602 550.04 271.322 549.12 270.762 548.24C270.282 547.28 269.442 546.48 268.242 545.84V556.64C280.562 558.32 286.722 564.2 286.722 574.28V575C286.722 580.36 285.082 584.72 281.802 588.08C278.602 591.44 274.082 593.48 268.242 594.2V601.64H256.722V593.84C253.442 593.28 250.642 592.36 248.322 591.08C246.002 589.72 244.082 588.12 242.562 586.28C241.122 584.44 240.042 582.4 239.322 580.16C238.602 577.84 238.242 575.48 238.242 573.08V570.68H251.922V572.36C251.922 574.2 252.282 575.8 253.002 577.16C253.722 578.52 254.962 579.6 256.722 580.4V567.44C251.202 566.48 246.842 564.68 243.642 562.04C240.522 559.4 238.962 555.56 238.962 550.52V549.8C238.962 547.08 239.442 544.72 240.402 542.72C241.362 540.64 242.642 538.88 244.242 537.44C245.842 535.92 247.722 534.72 249.882 533.84C252.042 532.96 254.322 532.32 256.722 531.92V524.36H268.242V532.28ZM273.042 575.24C273.042 574.04 272.762 572.96 272.202 572C271.642 570.96 270.322 570.12 268.242 569.48V580.88C270.082 580.32 271.322 579.52 271.962 578.48C272.682 577.44 273.042 576.36 273.042 575.24ZM252.642 549.8C252.642 550.92 252.882 551.88 253.362 552.68C253.842 553.4 254.962 554.08 256.722 554.72V545.24C255.282 545.72 254.242 546.4 253.602 547.28C252.962 548.08 252.642 548.92 252.642 549.8Z" stroke="#808080" stroke-width="2" mask="url(#path-1-outside-1_10_7)"/>
<path d="M270.522 701.72H257.202C253.842 701.72 251.122 702.56 249.042 704.24C246.962 705.92 245.922 708.44 245.922 711.8V712.52C245.922 715.88 246.962 718.4 249.042 720.08C251.122 721.76 253.842 722.6 257.202 722.6H270.522V701.72ZM285.642 677.48V687.32H296.682V702.44H285.642V737H255.642C251.642 737 248.082 736.44 244.962 735.32C241.842 734.2 239.242 732.68 237.162 730.76C235.082 728.76 233.482 726.44 232.362 723.8C231.322 721.08 230.802 718.16 230.802 715.04V713.6C230.802 708.8 232.122 704.96 234.762 702.08C237.482 699.12 240.882 697.08 244.962 695.96V693.8C240.882 692.68 237.482 690.68 234.762 687.8C232.122 684.92 230.802 681.08 230.802 676.28V674.84C230.802 671.72 231.322 668.84 232.362 666.2C233.482 663.48 235.082 661.16 237.162 659.24C239.242 657.32 241.842 655.8 244.962 654.68C248.082 653.56 251.642 653 255.642 653H268.722V667.4H257.202C253.842 667.4 251.122 668.2 249.042 669.8C246.962 671.32 245.922 673.72 245.922 677V677.72C245.922 681.08 246.962 683.52 249.042 685.04C251.122 686.56 253.842 687.32 257.202 687.32H270.522V677.48H285.642Z" stroke="#808080" stroke-width="2" mask="url(#path-1-outside-1_10_7)"/>
<path d="M279.522 852.08L270.762 843.32L266.802 834.44L264.882 835.28L268.242 844.04V856.76H256.722V844.04L260.082 835.28L258.162 834.44L254.202 843.32L245.442 852.08L237.402 844.04L246.162 835.28L255.042 831.32L254.202 829.4L245.442 832.76H232.722V821.24H245.442L254.202 824.6L255.042 822.68L246.162 818.72L237.402 809.96L245.442 801.92L254.202 810.68L258.162 819.56L260.082 818.72L256.722 809.96V797.24H268.242V809.96L264.882 818.72L266.802 819.56L270.762 810.68L279.522 801.92L287.562 809.96L278.802 818.72L269.922 822.68L270.762 824.6L279.522 821.24H292.242V832.76H279.522L270.762 829.4L269.922 831.32L278.802 835.28L287.562 844.04L279.522 852.08Z" stroke="#808080" stroke-width="2" mask="url(#path-1-outside-1_10_7)"/>
<path d="M122.962 15.8V1.39996H160.642C168.482 1.39996 174.722 3.47997 179.362 7.63997C184.002 11.8 186.322 18.04 186.322 26.36V67.16C186.322 70.52 185.242 73.28 183.082 75.44C181.002 77.6 178.282 78.68 174.922 78.68H160.162C157.122 78.68 154.882 78.04 153.442 76.76C152.082 75.4 151.282 73.8 151.042 71.96H148.882C148.162 73.8 146.842 75.4 144.922 76.76C143.082 78.04 140.402 78.68 136.882 78.68C134.082 78.68 131.482 78.12 129.082 77C126.762 75.96 124.722 74.36 122.962 72.2C121.282 69.96 119.922 67.16 118.882 63.8C117.922 60.44 117.442 56.48 117.442 51.92V51.2C117.442 46.64 117.962 42.68 119.002 39.32C120.122 35.96 121.562 33.2 123.322 31.04C125.162 28.8 127.282 27.16 129.682 26.12C132.162 25 134.802 24.44 137.602 24.44C140.642 24.44 142.962 25.04 144.562 26.24C146.242 27.36 147.442 28.76 148.162 30.44H150.322V26.12H164.722V61.64C164.722 63.88 165.802 65 167.962 65H168.682C170.842 65 171.922 63.88 171.922 61.64V30.2C171.922 20.6 167.122 15.8 157.522 15.8H122.962ZM141.202 65C144.482 65 146.802 63.8 148.162 61.4C149.602 58.92 150.322 55.76 150.322 51.92V51.2C150.322 47.36 149.602 44.24 148.162 41.84C146.802 39.36 144.482 38.12 141.202 38.12C138.162 38.12 135.842 39.36 134.242 41.84C132.642 44.24 131.842 47.36 131.842 51.2V51.92C131.842 55.76 132.642 58.92 134.242 61.4C135.842 63.8 138.162 65 141.202 65Z" stroke="#808080" stroke-width="2" mask="url(#path-1-outside-1_10_7)"/>
<path d="M169.522 192.08L160.762 183.32L156.802 174.44L154.882 175.28L158.242 184.04V196.76H146.722V184.04L150.082 175.28L148.162 174.44L144.202 183.32L135.442 192.08L127.402 184.04L136.162 175.28L145.042 171.32L144.202 169.4L135.442 172.76H122.722V161.24H135.442L144.202 164.6L145.042 162.68L136.162 158.72L127.402 149.96L135.442 141.92L144.202 150.68L148.162 159.56L150.082 158.72L146.722 149.96V137.24H158.242V149.96L154.882 158.72L156.802 159.56L160.762 150.68L169.522 141.92L177.562 149.96L168.802 158.72L159.922 162.68L160.762 164.6L169.522 161.24H182.242V172.76H169.522L160.762 169.4L159.922 171.32L168.802 175.28L177.562 184.04L169.522 192.08Z" stroke="#808080" stroke-width="2" mask="url(#path-1-outside-1_10_7)"/>
<path d="M157.042 330.2V316.52H147.922V330.2H134.962V316.52H122.722V303.56H134.962V294.44H122.722V281.48H134.962V267.8H147.922V281.48H157.042V267.8H170.002V281.48H182.242V294.44H170.002V303.56H182.242V316.52H170.002V330.2H157.042ZM157.042 294.44H147.922V303.56H157.042V294.44Z" stroke="#808080" stroke-width="2" mask="url(#path-1-outside-1_10_7)"/>
<path d="M169.522 456.08L160.762 447.32L156.802 438.44L154.882 439.28L158.242 448.04V460.76H146.722V448.04L150.082 439.28L148.162 438.44L144.202 447.32L135.442 456.08L127.402 448.04L136.162 439.28L145.042 435.32L144.202 433.4L135.442 436.76H122.722V425.24H135.442L144.202 428.6L145.042 426.68L136.162 422.72L127.402 413.96L135.442 405.92L144.202 414.68L148.162 423.56L150.082 422.72L146.722 413.96V401.24H158.242V413.96L154.882 422.72L156.802 423.56L160.762 414.68L169.522 405.92L177.562 413.96L168.802 422.72L159.922 426.68L160.762 428.6L169.522 425.24H182.242V436.76H169.522L160.762 433.4L159.922 435.32L168.802 439.28L177.562 448.04L169.522 456.08Z" stroke="#808080" stroke-width="2" mask="url(#path-1-outside-1_10_7)"/>
<path d="M158.242 532.28C163.682 533.4 167.882 535.64 170.842 539C173.802 542.36 175.282 546.36 175.282 551V552.68H161.602V551C161.602 550.04 161.322 549.12 160.762 548.24C160.282 547.28 159.442 546.48 158.242 545.84V556.64C170.562 558.32 176.722 564.2 176.722 574.28V575C176.722 580.36 175.082 584.72 171.802 588.08C168.602 591.44 164.082 593.48 158.242 594.2V601.64H146.722V593.84C143.442 593.28 140.642 592.36 138.322 591.08C136.002 589.72 134.082 588.12 132.562 586.28C131.122 584.44 130.042 582.4 129.322 580.16C128.602 577.84 128.242 575.48 128.242 573.08V570.68H141.922V572.36C141.922 574.2 142.282 575.8 143.002 577.16C143.722 578.52 144.962 579.6 146.722 580.4V567.44C141.202 566.48 136.842 564.68 133.642 562.04C130.522 559.4 128.962 555.56 128.962 550.52V549.8C128.962 547.08 129.442 544.72 130.402 542.72C131.362 540.64 132.642 538.88 134.242 537.44C135.842 535.92 137.722 534.72 139.882 533.84C142.042 532.96 144.322 532.32 146.722 531.92V524.36H158.242V532.28ZM163.042 575.24C163.042 574.04 162.762 572.96 162.202 572C161.642 570.96 160.322 570.12 158.242 569.48V580.88C160.082 580.32 161.322 579.52 161.962 578.48C162.682 577.44 163.042 576.36 163.042 575.24ZM142.642 549.8C142.642 550.92 142.882 551.88 143.362 552.68C143.842 553.4 144.962 554.08 146.722 554.72V545.24C145.282 545.72 144.242 546.4 143.602 547.28C142.962 548.08 142.642 548.92 142.642 549.8Z" stroke="#808080" stroke-width="2" mask="url(#path-1-outside-1_10_7)"/>
<path d="M160.522 701.72H147.202C143.842 701.72 141.122 702.56 139.042 704.24C136.962 705.92 135.922 708.44 135.922 711.8V712.52C135.922 715.88 136.962 718.4 139.042 720.08C141.122 721.76 143.842 722.6 147.202 722.6H160.522V701.72ZM175.642 677.48V687.32H186.682V702.44H175.642V737H145.642C141.642 737 138.082 736.44 134.962 735.32C131.842 734.2 129.242 732.68 127.162 730.76C125.082 728.76 123.482 726.44 122.362 723.8C121.322 721.08 120.802 718.16 120.802 715.04V713.6C120.802 708.8 122.122 704.96 124.762 702.08C127.482 699.12 130.882 697.08 134.962 695.96V693.8C130.882 692.68 127.482 690.68 124.762 687.8C122.122 684.92 120.802 681.08 120.802 676.28V674.84C120.802 671.72 121.322 668.84 122.362 666.2C123.482 663.48 125.082 661.16 127.162 659.24C129.242 657.32 131.842 655.8 134.962 654.68C138.082 653.56 141.642 653 145.642 653H158.722V667.4H147.202C143.842 667.4 141.122 668.2 139.042 669.8C136.962 671.32 135.922 673.72 135.922 677V677.72C135.922 681.08 136.962 683.52 139.042 685.04C141.122 686.56 143.842 687.32 147.202 687.32H160.522V677.48H175.642Z" stroke="#808080" stroke-width="2" mask="url(#path-1-outside-1_10_7)"/>
<path d="M169.522 852.08L160.762 843.32L156.802 834.44L154.882 835.28L158.242 844.04V856.76H146.722V844.04L150.082 835.28L148.162 834.44L144.202 843.32L135.442 852.08L127.402 844.04L136.162 835.28L145.042 831.32L144.202 829.4L135.442 832.76H122.722V821.24H135.442L144.202 824.6L145.042 822.68L136.162 818.72L127.402 809.96L135.442 801.92L144.202 810.68L148.162 819.56L150.082 818.72L146.722 809.96V797.24H158.242V809.96L154.882 818.72L156.802 819.56L160.762 810.68L169.522 801.92L177.562 809.96L168.802 818.72L159.922 822.68L160.762 824.6L169.522 821.24H182.242V832.76H169.522L160.762 829.4L159.922 831.32L168.802 835.28L177.562 844.04L169.522 852.08Z" stroke="#808080" stroke-width="2" mask="url(#path-1-outside-1_10_7)"/>
<path d="M36.0417 330.2V316.52H26.9217V330.2H13.9617V316.52H1.72171V303.56H13.9617V294.44H1.72171V281.48H13.9617V267.8H26.9217V281.48H36.0417V267.8H49.0017V281.48H61.2417V294.44H49.0017V303.56H61.2417V316.52H49.0017V330.2H36.0417ZM36.0417 294.44H26.9217V303.56H36.0417V294.44Z" stroke="#808080" stroke-width="2" mask="url(#path-1-outside-1_10_7)"/>
<path d="M48.5217 456.08L39.7617 447.32L35.8017 438.44L33.8817 439.28L37.2417 448.04V460.76H25.7217V448.04L29.0817 439.28L27.1617 438.44L23.2017 447.32L14.4417 456.08L6.40171 448.04L15.1617 439.28L24.0417 435.32L23.2017 433.4L14.4417 436.76H1.72171V425.24H14.4417L23.2017 428.6L24.0417 426.68L15.1617 422.72L6.40171 413.96L14.4417 405.92L23.2017 414.68L27.1617 423.56L29.0817 422.72L25.7217 413.96V401.24H37.2417V413.96L33.8817 422.72L35.8017 423.56L39.7617 414.68L48.5217 405.92L56.5617 413.96L47.8017 422.72L38.9217 426.68L39.7617 428.6L48.5217 425.24H61.2417V436.76H48.5217L39.7617 433.4L38.9217 435.32L47.8017 439.28L56.5617 448.04L48.5217 456.08Z" stroke="#808080" stroke-width="2" mask="url(#path-1-outside-1_10_7)"/>
<path d="M37.2417 532.28C42.6817 533.4 46.8817 535.64 49.8417 539C52.8017 542.36 54.2817 546.36 54.2817 551V552.68H40.6017V551C40.6017 550.04 40.3217 549.12 39.7617 548.24C39.2817 547.28 38.4417 546.48 37.2417 545.84V556.64C49.5617 558.32 55.7217 564.2 55.7217 574.28V575C55.7217 580.36 54.0817 584.72 50.8017 588.08C47.6017 591.44 43.0817 593.48 37.2417 594.2V601.64H25.7217V593.84C22.4417 593.28 19.6417 592.36 17.3217 591.08C15.0017 589.72 13.0817 588.12 11.5617 586.28C10.1217 584.44 9.04171 582.4 8.32171 580.16C7.60171 577.84 7.24171 575.48 7.24171 573.08V570.68H20.9217V572.36C20.9217 574.2 21.2817 575.8 22.0017 577.16C22.7217 578.52 23.9617 579.6 25.7217 580.4V567.44C20.2017 566.48 15.8417 564.68 12.6417 562.04C9.52171 559.4 7.96171 555.56 7.96171 550.52V549.8C7.96171 547.08 8.44171 544.72 9.40171 542.72C10.3617 540.64 11.6417 538.88 13.2417 537.44C14.8417 535.92 16.7217 534.72 18.8817 533.84C21.0417 532.96 23.3217 532.32 25.7217 531.92V524.36H37.2417V532.28ZM42.0417 575.24C42.0417 574.04 41.7617 572.96 41.2017 572C40.6417 570.96 39.3217 570.12 37.2417 569.48V580.88C39.0817 580.32 40.3217 579.52 40.9617 578.48C41.6817 577.44 42.0417 576.36 42.0417 575.24ZM21.6417 549.8C21.6417 550.92 21.8817 551.88 22.3617 552.68C22.8417 553.4 23.9617 554.08 25.7217 554.72V545.24C24.2817 545.72 23.2417 546.4 22.6017 547.28C21.9617 548.08 21.6417 548.92 21.6417 549.8Z" stroke="#808080" stroke-width="2" mask="url(#path-1-outside-1_10_7)"/>
</g>
<defs>
<filter id="filter0_d_10_7" x="0.72171" y="0.399963" width="301.96" height="862.36" filterUnits="userSpaceOnUse" color-interpolation-filters="sRGB">
<feFlood flood-opacity="0" result="BackgroundImageFix"/>
<feColorMatrix in="SourceAlpha" type="matrix" values="0 0 0 0 0 0 0 0 0 0 0 0 0 0 0 0 0 0 127 0" result="hardAlpha"/>
<feOffset dx="5" dy="5"/>
<feComposite in2="hardAlpha" operator="out"/>
<feColorMatrix type="matrix" values="0 0 0 0 0.501961 0 0 0 0 0.501961 0 0 0 0 0.501961 0 0 0 1 0"/>
<feBlend mode="normal" in2="BackgroundImageFix" result="effect1_dropShadow_10_7"/>
<feBlend mode="normal" in="SourceGraphic" in2="effect1_dropShadow_10_7" result="shape"/>
</filter>
</defs>
</svg>
